<svg width="56" height="56" viewBox="0 0 56 56" fill="none" xmlns="http://www.w3.org/2000/svg">
<path d="M0 14C0 6.26801 6.26801 0 14 0H42C49.732 0 56 6.26801 56 14V42C56 49.732 49.732 56 42 56H14C6.26801 56 0 49.732 0 42V14Z" fill="url(#paint0_linear_36_345)"/>
<path d="M17.334 30.6666C17.0817 30.6674 16.8343 30.5967 16.6206 30.4625C16.4069 30.3284 16.2356 30.1364 16.1267 29.9088C16.0178 29.6812 15.9757 29.4273 16.0053 29.1768C16.0349 28.9262 16.135 28.6892 16.294 28.4932L29.494 14.8932C29.593 14.7789 29.7279 14.7017 29.8766 14.6742C30.0253 14.6467 30.1789 14.6706 30.3123 14.7419C30.4456 14.8132 30.5508 14.9278 30.6104 15.0667C30.6701 15.2057 30.6807 15.3608 30.6406 15.5066L28.0806 23.5332C28.0052 23.7353 27.9798 23.9526 28.0068 24.1666C28.0337 24.3806 28.1122 24.5848 28.2354 24.7618C28.3587 24.9388 28.523 25.0832 28.7143 25.1828C28.9057 25.2823 29.1183 25.3339 29.334 25.3332H38.6673C38.9196 25.3324 39.167 25.4031 39.3807 25.5373C39.5944 25.6714 39.7657 25.8634 39.8746 26.091C39.9835 26.3186 40.0256 26.5724 39.996 26.823C39.9664 27.0736 39.8663 27.3106 39.7073 27.5066L26.5073 41.1066C26.4083 41.2208 26.2734 41.2981 26.1247 41.3256C25.976 41.3531 25.8223 41.3292 25.689 41.2579C25.5557 41.1866 25.4505 41.072 25.3909 40.9331C25.3312 40.7941 25.3205 40.639 25.3606 40.4932L27.9206 32.4666C27.9961 32.2645 28.0215 32.0472 27.9945 31.8332C27.9676 31.6192 27.8891 31.415 27.7659 31.238C27.6426 31.061 27.4783 30.9165 27.2869 30.817C27.0956 30.7175 26.883 30.6659 26.6673 30.6666H17.334Z" stroke="#0A0A0F" stroke-width="2.66667" stroke-linecap="round" stroke-linejoin="round"/>
<defs>
<linearGradient id="paint0_linear_36_345" x1="28" y1="0" x2="28" y2="56" gradientUnits="userSpaceOnUse">
<stop stop-color="#00FF88"/>
<stop offset="1" stop-color="#00D4FF"/>
</linearGradient>
</defs>
</svg>
